<?xml version="1.0" encoding="UTF-8" standalone="no"?>
<!-- Created with Inkscape (http://www.inkscape.org/) -->

<svg
   width="44.677708mm"
   height="113.13303mm"
   viewBox="0 0 44.677708 113.13303"
   version="1.1"
   id="svg1"
   xml:space="preserve"
   xmlns:inkscape="http://www.inkscape.org/namespaces/inkscape"
   xmlns:sodipodi="http://sodipodi.sourceforge.net/DTD/sodipodi-0.dtd"
   xmlns="http://www.w3.org/2000/svg"
   xmlns:svg="http://www.w3.org/2000/svg"><sodipodi:namedview
     id="namedview1"
     pagecolor="#505050"
     bordercolor="#eeeeee"
     borderopacity="1"
     inkscape:showpageshadow="0"
     inkscape:pageopacity="0"
     inkscape:pagecheckerboard="0"
     inkscape:deskcolor="#505050"
     inkscape:document-units="mm"
     inkscape:zoom="0.45344416"
     inkscape:cx="-126.80723"
     inkscape:cy="903.08804"
     inkscape:window-width="1366"
     inkscape:window-height="705"
     inkscape:window-x="-8"
     inkscape:window-y="-8"
     inkscape:window-maximized="1"
     inkscape:current-layer="layer1" /><defs
     id="defs1" /><g
     inkscape:label="Camada 1"
     inkscape:groupmode="layer"
     id="layer1"
     transform="translate(-80.000002)"><path
       d="m 86.26384,112.66628 c -0.252183,-0.30387 -0.08844,-0.52765 0.867185,-1.18513 1.482274,-1.01985 3.887986,-3.5118 4.392392,-4.54986 0.396128,-0.81523 0.35311,-1.66543 -0.507491,-10.030004 -0.142235,-1.38245 -0.31175,-5.13292 -0.376699,-8.33438 -0.06495,-3.20145 -0.267113,-7.28293 -0.449251,-9.06994 -0.362378,-3.55539 -0.08254,-8.87908 0.678999,-12.91742 0.21674,-1.14935 0.508149,-3.40136 0.647577,-5.00447 0.139427,-1.60311 0.511663,-4.04389 0.827195,-5.42396 1.23388,-5.3968 1.1408,-10.26718 -0.278039,-14.54775 -0.458227,-1.38245 -0.969614,-3.49581 -1.136416,-4.69635 -0.429722,-3.09289 -0.862978,-2.5344 -1.385469,1.78594 -0.242192,2.00262 -1.076586,4.79371 -2.051992,6.86401 -0.749145,1.59006 -0.83212,2.04427 -0.99363,5.43911 -0.143197,3.00991 -0.302537,4.0513 -0.85015,5.55625 -1.994541,5.48142 -2.603198,7.46146 -2.480626,8.06979 0.0733,0.3638 0.245287,1.19724 0.38219,1.85209 0.720548,3.44658 0.564616,4.66737 -0.339945,2.66141 -0.477489,-1.05888 -1.054703,-1.51926 -1.335389,-1.06511 -0.236987,0.38346 0.348642,3.17716 0.815311,3.88938 0.845427,1.29029 0.174909,1.18764 -0.869024,-0.13304 -1.825977,-2.31003 -2.116189,-3.41658 -1.579665,-6.02309 0.254161,-1.23475 0.45224,-3.42232 0.457535,-5.05297 0.01399,-4.30803 0.453233,-9.5692 0.935892,-11.20992 0.26135,-0.88841 0.512512,-3.20712 0.644842,-5.95312 0.21554,-4.47272 0.532259,-6.38968 1.596623,-9.66367 0.306364,-0.94238 0.649591,-2.68538 0.762727,-3.87333 0.393585,-4.13272 1.658707,-5.53152 6.190897,-6.84502 1.284311,-0.37221 3.102998,-1.02845 4.041518,-1.4583 0.93853,-0.42986 1.81636,-0.78155 1.95074,-0.78155 1.83869,0 2.97817,-4.39462 1.75937,-6.7853 -0.38172,-0.74874 -0.69403,-1.53636 -0.69403,-1.75026 0,-0.2139 -0.2131,-0.67286 -0.47356,-1.01991 -1.01881,-1.35752 -1.51842,-3.4900103 -0.78321,-3.3429703 0.23568,0.0471 0.36965,-0.58017 0.46616,-2.18281 0.45282,-7.51971 9.983083,-7.98838 10.275973,-0.50534 0.079,2.01975 0.16829,2.40765 0.60803,2.64299 0.6605,0.35349 0.31325,1.38052 -2.20576,6.5237803 -1.78306,3.64061 0.7729,6.63373 7.19363,8.42398 5.25226,1.46445 6.48544,2.69352 6.91099,6.88796 0.11971,1.17988 0.51139,3.08488 0.8704,4.23333 1.00978,3.2302 1.47902,6.23638 1.47902,9.47527 0,2.04256 0.16023,3.61579 0.51577,5.064 0.74243,3.02419 1.07014,6.31202 1.07099,10.74511 5.7e-4,2.97375 0.12579,4.40823 0.53534,6.13264 0.6022,2.53559 0.4452,3.34622 -1.08677,5.61128 -1.29406,1.91332 -2.36499,2.37854 -1.29303,0.56171 0.76023,-1.2885 1.03931,-3.88422 0.41761,-3.88422 -0.27339,0 -0.63891,0.45635 -0.95366,1.19063 -0.2807,0.65484 -0.64068,1.19062 -0.79996,1.19062 -0.15928,0 -0.21477,-0.12108 -0.12331,-0.26907 0.24197,-0.39151 0.73533,-4.40446 0.73134,-5.94864 -0.002,-0.92035 -0.37222,-2.30215 -1.21542,-4.54095 -1.79968,-4.77834 -2.11862,-6.20277 -1.9358,-8.64556 0.16599,-2.21799 0.28337,-1.74299 -1.90848,-7.72277 -0.42817,-1.16813 -0.97111,-3.3354 -1.20653,-4.81616 -0.58172,-3.659 -1.21475,-4.80637 -1.21475,-2.20173 0,0.97036 -0.63903,3.57678 -1.85211,7.55426 -0.73415,2.40716 -0.62239,8.78543 0.21326,12.17083 0.28736,1.16417 0.66217,3.36682 0.83291,4.89479 0.17075,1.52797 0.54466,4.20688 0.83093,5.95313 0.69737,4.25407 0.91812,9.88197 0.52409,13.36146 -0.17304,1.52796 -0.36606,5.45703 -0.42895,8.73125 -0.0634,3.30077 -0.37427,8.52436 -0.69774,11.724194 -0.71084,7.03172 -0.56562,7.39431 4.54636,11.35181 1.84377,1.42738 -2.47703,1.90114 -5.28787,0.5798 -3.15275,-1.48206 -2.77787,-0.76078 -2.81167,-5.40973 -0.0239,-3.28192 -0.13701,-4.45712 -0.57216,-5.94296 -1.22154,-4.170904 -1.64706,-6.899444 -1.64706,-10.561204 0,-3.01433 -0.13905,-4.23988 -0.90865,-8.00826 -0.49975,-2.4471 -1.22352,-6.23522 -1.60838,-8.41803 -0.38485,-2.18281 -0.89952,-4.98078 -1.14371,-6.21771 l -0.44397,-2.24896 -0.96788,-0.0808 c -1.17822,-0.0983 -0.98509,-0.65795 -2.31064,6.69536 -0.577123,3.20146 -1.433003,7.6663 -1.901963,9.92187 -0.66593,3.20293 -0.86866,4.88328 -0.92571,7.67292 -0.0944,4.6146 -0.1998,5.38105 -1.44279,10.489984 -0.99725,4.0989 -1.03397,4.40572 -0.90468,7.55987 l 0.13476,3.2876 -2.24015,0.97294 c -2.501323,1.08637 -5.824871,1.39305 -6.484417,0.59835 z"
       style="display:inline;fill:#000000"
       id="normal"
       inkscape:label="normal" /></g></svg>
