<?xml version="1.0" encoding="UTF-8" standalone="no"?>
<!-- Created with Inkscape (http://www.inkscape.org/) -->

<svg
   width="51.959198mm"
   height="113.23497mm"
   viewBox="0 0 51.959198 113.23497"
   version="1.1"
   id="svg1"
   xml:space="preserve"
   xmlns:inkscape="http://www.inkscape.org/namespaces/inkscape"
   xmlns:sodipodi="http://sodipodi.sourceforge.net/DTD/sodipodi-0.dtd"
   xmlns="http://www.w3.org/2000/svg"
   xmlns:svg="http://www.w3.org/2000/svg"><sodipodi:namedview
     id="namedview1"
     pagecolor="#505050"
     bordercolor="#eeeeee"
     borderopacity="1"
     inkscape:showpageshadow="0"
     inkscape:pageopacity="0"
     inkscape:pagecheckerboard="0"
     inkscape:deskcolor="#505050"
     inkscape:document-units="mm"
     inkscape:zoom="0.45344416"
     inkscape:cx="-126.80723"
     inkscape:cy="903.08804"
     inkscape:window-width="1366"
     inkscape:window-height="705"
     inkscape:window-x="-8"
     inkscape:window-y="-8"
     inkscape:window-maximized="1"
     inkscape:current-layer="layer1" /><defs
     id="defs1" /><g
     inkscape:label="Camada 1"
     inkscape:groupmode="layer"
     id="layer1"
     transform="translate(-320.00001)"><path
       style="display:inline;fill:#000000"
       d="m 328.55295,113.13695 c -0.71095,-0.21532 -0.78866,-0.85811 -0.14496,-1.19914 0.84823,-0.44939 4.41256,-3.94724 4.81478,-4.72498 0.36287,-0.70166 -0.028,-4.83525 -0.65044,-6.87917 -0.52629,-1.728106 -1.06534,-6.071656 -1.06534,-8.584296 0,-1.37631 -0.17859,-3.18805 -0.39688,-4.02609 -0.21828,-0.83803 -0.39687,-2.0909 -0.39687,-2.78414 0,-0.77442 -0.30002,-2.01569 -0.77805,-3.21907 -1.32831,-3.34383 -1.66446,-5.06458 -1.76505,-9.03536 -0.0764,-3.01468 -0.20324,-3.99966 -0.68161,-5.29166 -0.43697,-1.18019 -0.60137,-2.25424 -0.64076,-4.18614 -0.0663,-3.25256 -0.0562,-3.24716 -1.29965,-0.69687 -0.9642,1.97761 -1.00914,2.17257 -0.68476,2.97059 0.19093,0.46975 0.43512,1.68752 0.54264,2.70617 0.10752,1.01864 0.28681,2.06044 0.39842,2.3151 0.42805,0.97666 -0.65162,0.44573 -1.34512,-0.66146 -0.85179,-1.35989 -1.18519,-1.60368 -1.61102,-1.178 -0.50287,0.50268 -0.10369,2.20302 0.84982,3.61994 1.09964,1.63405 0.37363,1.7149 -1.23701,0.13775 -2.64515,-2.59014 -2.94735,-3.65497 -1.89916,-6.69186 0.74387,-2.1552 0.768,-4.81035 0.0755,-8.31061 -0.52633,-2.66042 -0.3601,-6.6967 0.39421,-9.57156 0.54789,-2.08818 0.68607,-3.23179 0.68732,-5.68854 0.004,-8.46758 2.71964,-16.17262 6.35257,-18.026 0.55309,-0.28216 2.92966,-0.98405 5.28127,-1.55976 5.63998,-1.38073 6.47842,-1.99544 7.30824,-5.3581 l 0.42182,-1.70935 -0.80007,-1.18548 c -0.89156,-1.32106 -1.00187,-1.70635 -1.22763,-4.28787 -0.14232,-1.62745 -0.11225,-1.79192 0.31441,-1.71979 0.41288,0.0698 0.4899,-0.20102 0.61692,-2.16921 0.51977,-8.05378 11.59669,-8.25271 11.62301,-0.20874 0.005,1.41616 0.11049,1.87315 0.52287,2.25734 0.7649,0.71261 0.38612,4.27816 -0.64059,6.03012 -0.76308,1.30209 -0.78375,2.64785 -0.0664,4.32503 0.99605,2.32887 1.79798,2.77221 7.46857,4.1289 5.42095,1.29696 6.65198,2.09641 8.3168,5.40105 1.8215,3.61563 2.92541,8.89188 2.92541,13.98217 0,2.67424 0.12771,3.7756 0.69256,5.97265 0.81264,3.16084 0.87534,5.69685 0.24926,10.08202 -0.56173,3.9345 -0.52235,5.10611 0.24881,7.40336 0.86985,2.59123 0.84957,3.52245 -0.10541,4.84076 -1.2067,1.6658 -2.81409,3.2541 -3.29321,3.2541 -0.55164,0 -0.56216,-0.3612 -0.0235,-0.80823 0.69479,-0.57663 1.17149,-1.75064 1.24016,-3.05429 0.0867,-1.64466 -0.37476,-1.7583 -1.30624,-0.32171 -1.10597,1.70569 -1.87202,2.10767 -1.54511,0.81079 0.10087,-0.40018 0.28959,-1.50151 0.41938,-2.4474 0.12979,-0.94588 0.30864,-2.14335 0.39744,-2.66103 0.13179,-0.76822 -0.0174,-1.26656 -0.81135,-2.71105 -1.30802,-2.37966 -1.32104,-2.37279 -1.32975,0.70099 -0.006,2.20712 -0.12099,2.9701 -0.64279,4.27422 -0.51844,1.29573 -0.62441,1.99069 -0.57659,3.7813 0.10096,3.7804 -0.45088,6.86674 -1.91961,10.73614 -0.37942,0.99959 -0.69127,2.36881 -0.693,3.0427 -0.002,0.6739 -0.17891,1.88012 -0.39373,2.68048 -0.21483,0.80037 -0.39271,2.5863 -0.3953,3.96875 -0.005,2.69719 -0.53365,6.76995 -1.19541,9.210316 -0.22451,0.82792 -0.47992,2.51734 -0.56758,3.75427 l -0.15938,2.24895 1.06567,1.34711 c 0.96455,1.21927 1.70949,1.92061 4.16241,3.9188 l 0.79375,0.6466 -0.79375,0.31128 c -1.02243,0.40095 -4.2925,0.14886 -5.62292,-0.43348 -0.54541,-0.23873 -1.94416,-0.62718 -3.10833,-0.86322 l -2.11666,-0.42917 -5.9e-4,-2.77812 c -5.7e-4,-2.72365 -0.0274,-2.84597 -1.36982,-6.23756 -2.02261,-5.110196 -2.28757,-6.295756 -2.33123,-10.431186 -0.0354,-3.35172 -0.0885,-3.69419 -0.86101,-5.55625 -0.8339,-2.00996 -1.90418,-6.66445 -1.93824,-8.42912 -0.054,-2.80078 -0.61238,-2.16419 -0.89527,1.02078 -0.17731,1.99621 -1.09142,5.63745 -2.11947,8.44268 -0.6412,1.74961 -0.6991,2.17894 -0.53851,3.99312 0.25159,2.84218 -0.36795,5.84637 -2.23644,10.844566 -1.52235,4.07229 -1.53351,4.123 -1.44404,6.56145 0.0993,2.70595 -0.0664,2.95723 -1.95917,2.9721 -0.39071,0.003 -1.54382,0.30233 -2.56246,0.66502 -1.76209,0.6274 -5.05152,1.04188 -5.99675,0.7556 z"
       id="obesidade_Grau2"
       sodipodi:nodetypes="sssssssssssssssssssssscssscsssscsssssssssssssssssscssscsssscsscssscsssssssssscsss"
       inkscape:label="obesidade Grau2" /></g></svg>
