<?xml version="1.0" encoding="UTF-8" standalone="no"?>
<!-- Created with Inkscape (http://www.inkscape.org/) -->

<svg
   width="40.55442mm"
   height="112.67905mm"
   viewBox="0 0 40.55442 112.67905"
   version="1.1"
   id="svg1"
   xml:space="preserve"
   xmlns:inkscape="http://www.inkscape.org/namespaces/inkscape"
   xmlns:sodipodi="http://sodipodi.sourceforge.net/DTD/sodipodi-0.dtd"
   xmlns="http://www.w3.org/2000/svg"
   xmlns:svg="http://www.w3.org/2000/svg"><sodipodi:namedview
     id="namedview1"
     pagecolor="#505050"
     bordercolor="#eeeeee"
     borderopacity="1"
     inkscape:showpageshadow="0"
     inkscape:pageopacity="0"
     inkscape:pagecheckerboard="0"
     inkscape:deskcolor="#505050"
     inkscape:document-units="mm"
     inkscape:zoom="0.45344416"
     inkscape:cx="-126.80723"
     inkscape:cy="903.08804"
     inkscape:window-width="1366"
     inkscape:window-height="705"
     inkscape:window-x="-8"
     inkscape:window-y="-8"
     inkscape:window-maximized="1"
     inkscape:current-layer="layer1" /><defs
     id="defs1" /><g
     inkscape:label="Camada 1"
     inkscape:groupmode="layer"
     id="layer1"
     transform="translate(0,-2.8569857)"><path
       d="m 5.2292376,115.26746 c -0.796007,-0.31995 -0.773475,-0.37292 0.544375,-1.27962 4.5015804,-3.09718 5.0680934,-4.44582 4.6788824,-11.13851 -0.173196,-2.978196 -0.279308,-7.085846 -0.235804,-9.128116 0.0435,-2.04227 -0.08539,-5.93828 -0.2864384,-8.6578 -0.399281,-5.40104 -0.137155,-11.79292 0.6519864,-15.89848 0.217527,-1.1317 0.575967,-3.81061 0.796532,-5.95312 0.220566,-2.14252 0.589532,-4.66939 0.819925,-5.61528 0.651262,-2.67378 0.807066,-9.33481 0.262185,-11.20914 -0.240461,-0.82716 -0.67249,-3.37622 -0.960063,-5.66458 -0.754053,-6.00036 -0.713031,-5.97634 -2.3608294,-1.38253 -0.60028,1.67349 -1.770416,4.76912 -2.600303,6.87917 l -1.508886,3.83646 -0.151087,3.70416 c -0.143027,3.50655 -0.217136,3.90294 -1.389063,7.42978 -1.341111,4.03599 -1.441115,4.82471 -0.848229,6.68992 1.353987,4.25963 1.458576,5.14344 0.381988,3.22791 -0.593991,-1.05687 -1.157032,-1.37504 -1.359327,-0.76816 -0.164588,0.49377 0.405709,2.39055 1.041691,3.46462 0.789384,1.33313 0.325519,1.25547 -0.801355,-0.13417 -1.95909404,-2.41592 -2.08350504,-2.91558 -1.78000304,-7.14885 0.148469,-2.07087 0.274798,-5.0749 0.28073,-6.67563 0.01175,-3.16989 0.298595,-5.92059 0.89671304,-8.59896 0.21123,-0.94588 0.63472,-2.96995 0.94109,-4.49791 0.30637,-1.52797 0.857484,-3.90922 1.224697,-5.29167 0.367212,-1.38245 1.023387,-3.92536 1.458166,-5.65091 1.853161,-7.35484 2.922363,-8.92026 6.9831564,-10.22403 4.640609,-1.48993 5.248488,-2.07654 5.655541,-5.4577 0.17904,-1.48719 0.139008,-1.81634 -0.286729,-2.35758 -0.272153,-0.34598 -0.72924,-1.31041 -1.015748,-2.14316 -0.28651,-0.83276 -0.680079,-1.70099 -0.874598,-1.92942 -0.310285,-0.36437 -1.229508,-2.45919 -1.229508,-2.80193 0,-0.0698 0.238125,-0.12693 0.529167,-0.12693 0.484707,0 0.529166,-0.17639 0.529166,-2.09945 0,-4.12106 1.808831,-6.00487 5.562243,-5.79278 3.028589,0.17113 4.878155,2.08708 4.746589,4.91695 -0.106836,2.29794 -0.01423,2.97528 0.406792,2.97528 0.602127,0 0.05781,2.43023 -0.651867,2.91041 -0.107536,0.0728 -0.456628,0.84667 -0.775761,1.71979 -0.319133,0.87313 -0.806117,1.90069 -1.082187,2.28347 -0.445518,0.61772 -0.473014,0.90026 -0.244582,2.51328 0.479871,3.3885 1.377988,4.25334 5.664813,5.45492 4.042515,1.1331 4.917937,2.46222 7.014889,10.65042 4.024144,15.71352 4.378394,17.87816 4.622614,28.24619 0.16486,6.99936 0.21795,6.71464 -1.7059,9.1485 -1.35413,1.7131 -1.83121,1.77906 -0.79552,0.10999 0.94464,-1.52234 1.35892,-3.77031 0.69484,-3.77031 -0.2351,0 -0.67042,0.47625 -0.96738,1.05833 -0.29696,0.58209 -0.660754,1.05834 -0.808437,1.05834 -0.176894,0 -0.172052,-0.18025 0.01419,-0.52824 0.155487,-0.29053 0.408893,-1.21086 0.563127,-2.04518 0.15423,-0.83432 0.44792,-1.84086 0.65265,-2.23675 0.57293,-1.10794 0.45967,-1.98462 -0.69726,-5.39692 -1.453066,-4.28573 -1.861755,-6.49216 -1.672053,-9.02709 0.130975,-1.75018 0.06521,-2.2865 -0.431612,-3.51999 -1.295513,-3.21642 -3.243446,-8.47801 -4.040573,-10.91406 -1.200146,-3.66769 -1.473375,-3.31299 -2.190965,2.84427 -0.220475,1.89177 -0.595781,4.03489 -0.834015,4.7625 -0.495944,1.51469 -0.554469,7.76542 -0.09414,10.05416 0.745005,3.70412 1.026552,5.48029 1.174322,7.40834 0.08922,1.16416 0.222455,2.41432 0.296069,2.77812 0.990952,4.89734 1.537706,13.02104 1.193093,17.72709 -0.667921,9.12116 -0.837525,24.875596 -0.277552,25.781656 0.528752,0.85553 2.862848,3.13529 4.525993,4.42063 l 0.907369,0.70125 -0.79375,0.31711 c -1.111724,0.44415 -4.167158,0.16267 -5.237099,-0.48247 -0.466574,-0.28132 -1.284273,-0.65076 -1.817108,-0.82097 -1.238687,-0.39568 -1.229597,-0.35606 -0.95843,-4.17682 0.21193,-2.9861 0.168239,-3.59291 -0.575362,-7.99104 -0.637873,-3.772776 -0.804709,-5.546166 -0.804709,-8.553676 0,-4.19874 -0.177257,-5.31814 -2.796831,-17.66234 -1.721648,-8.11292 -1.599667,-7.76913 -2.756631,-7.76913 h -0.888341 l -1.025151,4.74446 c -3.452457,15.97819 -3.414023,15.74938 -3.507903,20.88404 -0.05244,2.86791 -0.254987,5.65717 -0.509158,7.011456 -0.737233,3.92815 -1.227522,7.4402 -1.073466,7.68946 0.08197,0.13264 0.188479,1.37246 0.236678,2.75515 l 0.08763,2.51399 -1.43481,0.77714 c -2.2210424,1.20297 -5.3641864,1.69137 -6.9033724,1.07269 z"
       style="display:inline;fill:#000000"
       id="Abaixo_do_peso"
       inkscape:label="Abaixo do peso" /></g></svg>
