<?xml version="1.0" encoding="UTF-8" standalone="no"?>
<!-- Created with Inkscape (http://www.inkscape.org/) -->

<svg
   width="44.502048mm"
   height="112.68134mm"
   viewBox="0 0 44.502048 112.68134"
   version="1.1"
   id="svg1"
   xml:space="preserve"
   xmlns:inkscape="http://www.inkscape.org/namespaces/inkscape"
   xmlns:sodipodi="http://sodipodi.sourceforge.net/DTD/sodipodi-0.dtd"
   xmlns="http://www.w3.org/2000/svg"
   xmlns:svg="http://www.w3.org/2000/svg"><sodipodi:namedview
     id="namedview1"
     pagecolor="#505050"
     bordercolor="#eeeeee"
     borderopacity="1"
     inkscape:showpageshadow="0"
     inkscape:pageopacity="0"
     inkscape:pagecheckerboard="0"
     inkscape:deskcolor="#505050"
     inkscape:document-units="mm"
     inkscape:zoom="0.45344416"
     inkscape:cx="-126.80723"
     inkscape:cy="903.08804"
     inkscape:window-width="1366"
     inkscape:window-height="705"
     inkscape:window-x="-8"
     inkscape:window-y="-8"
     inkscape:window-maximized="1"
     inkscape:current-layer="layer1" /><defs
     id="defs1" /><g
     inkscape:label="Camada 1"
     inkscape:groupmode="layer"
     id="layer1"
     transform="translate(-160)"><path
       d="m 166.4249,112.37002 c -0.47717,-0.35969 -0.44191,-0.42144 0.68234,-1.19494 1.30469,-0.89766 3.86474,-3.45668 4.37335,-4.37161 0.45773,-0.82338 0.41769,-2.49304 -0.17758,-7.404901 -0.32898,-2.71465 -0.5624,-6.669536 -0.63577,-10.771846 -0.0813,-4.54499 -0.23734,-6.99627 -0.52218,-8.20208 -0.69693,-2.9502 -1.02378,-6.94456 -0.89123,-10.8914 0.20903,-6.22399 0.93096,-18.21942 1.20758,-20.06485 0.24604,-1.64137 0.22807,-12.33408 -0.0211,-12.58329 -0.13082,-0.13083 -0.46336,0.93229 -1.13194,3.6188 -0.23969,0.96312 -0.60233,2.07212 -0.80586,2.46443 -0.20353,0.3923 -0.5103,1.44976 -0.6817,2.3499 -0.1714,0.90014 -0.48644,2.1724 -0.70009,2.82724 -0.21365,0.65484 -0.48267,2.16869 -0.59782,3.3641 -0.15402,1.59889 -0.67121,3.52455 -1.95633,7.2841 -1.739,5.08731 -1.74524,5.116 -1.36859,6.29318 0.20811,0.65042 0.44168,2.01601 0.51905,3.03466 l 0.14068,1.85208 -0.55169,-1.05833 c -1.3359,-2.5627 -2.26376,-0.56774 -1.01524,2.18281 0.74897,1.65 0.15435,1.37011 -1.05092,-0.49468 -1.27914,-1.97906 -1.46525,-2.86665 -1.02458,-4.88622 0.394,-1.80571 0.41977,-4.10575 0.11237,-10.03108 -0.20537,-3.95875 -0.1811,-4.37062 0.37419,-6.35 0.42176,-1.50339 0.65651,-3.31644 0.81021,-6.25759 0.2994,-5.72937 0.94185,-9.38728 2.64498,-15.05973 0.49977,-1.66455 2.05374,-3.95038 2.68557,-3.95038 0.14857,0 0.64531,-0.16776 1.10386,-0.37281 0.45856,-0.20504 1.6929,-0.55802 2.74299,-0.78439 6.24901,-1.34712 9.00976,-5.12412 6.94131,-9.49643 -0.42919,-0.90722 -0.78044,-1.93334 -0.78056,-2.28026 -1.1e-4,-0.34692 -0.13607,-1.08424 -0.30213,-1.6384904 -0.24925,-0.83191 -0.22617,-1.16737 0.13229,-1.92276 0.23882,-0.50327 0.43422,-1.56712 0.43422,-2.3641 0,-3.31361 1.9164,-5.22528996 5.22193,-5.20904996139 3.33406,0.0164000014 4.96267,1.71901996139 4.96795,5.19381996139 0.003,1.88631 0.0833,2.31182 0.49392,2.61205 0.42161,0.30829 0.449,0.47768 0.19501,1.20627 -0.16251,0.46619 -0.29548,1.1896504 -0.29548,1.6076904 0,0.41804 -0.35719,1.54784 -0.79375,2.51066 -2.11983,4.67518 0.42716,8.35511 6.74687,9.74797 5.77292,1.27235 6.01318,1.61633 8.31532,11.90545 0.56306,2.51653 1.07498,7.33968 1.07649,10.14238 5e-4,0.92164 0.25084,2.64804 0.55632,3.83645 0.50797,1.97615 0.54753,2.73717 0.46302,8.90763 -0.0716,5.2273 -0.006,7.12002 0.29192,8.40365 0.42775,1.84403 -0.0521,3.33942 -1.69999,5.29783 -0.96949,1.15217 -1.3149,1.0746 -0.63039,-0.14159 0.686,-1.21881 0.83989,-3.63802 0.23143,-3.63802 -0.21544,0 -0.67473,0.51306 -1.02064,1.14013 -0.72684,1.31762 -0.93915,1.33061 -0.56749,0.0347 0.14303,-0.49872 0.26006,-1.2928 0.26006,-1.76461 0,-0.47182 0.14578,-1.40292 0.32396,-2.06913 0.28939,-1.08199 0.25922,-1.4001 -0.28261,-2.98036 -1.06537,-3.10711 -2.18639,-6.25055 -2.42368,-6.79616 -0.12658,-0.29104 -0.35932,-1.70275 -0.51722,-3.13712 -0.1579,-1.43437 -0.38989,-2.80359 -0.51553,-3.04271 -0.12564,-0.23911 -0.36932,-1.14913 -0.5415,-2.02226 -0.17218,-0.87312 -0.77316,-3.07578 -1.33552,-4.89479 -0.56236,-1.81901 -1.12782,-3.72401 -1.25658,-4.23333 -0.3788,-1.49834 -0.67421,9.13328 -0.33818,12.17083 0.15294,1.38245 0.39517,5.01386 0.53829,8.06979 0.14313,3.05594 0.38187,7.04454 0.53054,8.86355 0.3321,4.06317 0.1314,8.16293 -0.5958,12.17083 -0.30363,1.67349 -0.58669,4.11427 -0.62901,5.42396 -0.2849,8.81703 -0.59721,14.267646 -1.01086,17.641917 l -0.47609,3.88358 0.60616,0.87892 c 0.72834,1.05607 3.19949,3.53357 4.48404,4.49559 0.50933,0.38144 0.82683,0.79529 0.70556,0.91968 -0.47689,0.48914 -4.48799,0.25181 -5.73264,-0.3392 -0.65484,-0.31095 -1.60734,-0.65212 -2.11667,-0.75816 -0.50932,-0.10604 -1.05815,-0.29882 -1.21961,-0.42839 -0.29528,-0.23697 -0.29346,-4.47325 0.002,-4.95151 0.19444,-0.31461 -0.46368,-4.25868 -1.30964,-7.848681 -0.48773,-2.06977 -0.75247,-4.171396 -0.91653,-7.276036 -0.13434,-2.5421 -0.40837,-4.97347 -0.65605,-5.82084 -1.45393,-4.97426 -3.01162,-14.77134 -3.03939,-19.11614 -0.004,-0.65351 -0.0984,-0.72761 -0.92565,-0.72761 -1.08843,0 -1.09098,0.007 -1.33102,3.83646 -0.28578,4.55862 -1.16266,9.89273 -2.48649,15.12536 -0.66317,2.62125 -0.83682,3.92343 -0.935,7.01146 -0.0908,2.85595 -0.28826,4.478316 -0.79968,6.570466 -1.2679,5.186781 -1.4593,6.587921 -1.34389,9.837611 0.12022,3.38497 0.09,3.46499 -1.43281,3.79113 -0.50354,0.10785 -1.38329,0.4399 -1.95501,0.7379 -1.34969,0.70349 -4.82671,0.94122 -5.57014,0.38083 z"
       style="display:inline;fill:#000000"
       id="Acima_do_peso"
       inkscape:label="Acima do peso" /></g></svg>
