<?xml version="1.0" encoding="UTF-8" standalone="no"?>
<!-- Created with Inkscape (http://www.inkscape.org/) -->

<svg
   width="46.515682mm"
   height="112.96403mm"
   viewBox="0 0 46.515682 112.96403"
   version="1.1"
   id="svg1"
   xml:space="preserve"
   xmlns:inkscape="http://www.inkscape.org/namespaces/inkscape"
   xmlns:sodipodi="http://sodipodi.sourceforge.net/DTD/sodipodi-0.dtd"
   xmlns="http://www.w3.org/2000/svg"
   xmlns:svg="http://www.w3.org/2000/svg"><sodipodi:namedview
     id="namedview1"
     pagecolor="#505050"
     bordercolor="#eeeeee"
     borderopacity="1"
     inkscape:showpageshadow="0"
     inkscape:pageopacity="0"
     inkscape:pagecheckerboard="0"
     inkscape:deskcolor="#505050"
     inkscape:document-units="mm"
     inkscape:zoom="0.45344416"
     inkscape:cx="-126.80723"
     inkscape:cy="903.08804"
     inkscape:window-width="1366"
     inkscape:window-height="705"
     inkscape:window-x="-8"
     inkscape:window-y="-8"
     inkscape:window-maximized="1"
     inkscape:current-layer="layer1" /><defs
     id="defs1" /><g
     inkscape:label="Camada 1"
     inkscape:groupmode="layer"
     id="layer1"
     transform="translate(-239.99999)"><path
       d="m 246.89707,112.84989 c -1.04643,-0.28118 -0.94405,-0.57521 0.61914,-1.77806 1.65512,-1.27359 3.72867,-3.56859 4.15822,-4.60229 0.16006,-0.38519 0.13313,-2.23763 -0.075,-5.15937 -0.1786,-2.50713 -0.30917,-6.34435 -0.29016,-8.52716 0.0246,-2.81953 -0.0931,-4.56425 -0.40641,-6.02525 -0.24255,-1.13108 -0.37707,-2.3217 -0.29895,-2.64583 0.0781,-0.32414 -0.10153,-1.42277 -0.39924,-2.44142 -1.67476,-5.730456 -2.6468,-20.255206 -1.858,-27.763196 0.46493,-4.4253 0.56553,-7.46508 0.22855,-6.90579 -0.52838,0.87693 -1.28114,4.12981 -1.28364,5.54693 -0.002,0.85388 -0.3418,2.30168 -0.93701,3.98664 -2.18795,6.19374 -2.5397,7.39029 -2.36881,8.05804 0.0948,0.37027 0.26743,1.44712 0.3837,2.39301 0.11628,0.94588 0.30288,2.06273 0.41467,2.48189 0.30226,1.13336 -0.38759,0.78297 -1.14803,-0.5831 -1.92929,-3.46582 -2.02531,-0.0254 -0.10392,3.7236 0.18922,0.36922 -0.38738,0.20131 -0.90862,-0.26458 -2.52866,-2.2602 -3.1618,-4.45898 -2.18997,-7.60539 0.54151,-1.75321 0.54269,-1.82613 0.0998,-6.17943 -0.49369,-4.85254 -0.42231,-6.6974 0.39349,-10.17022 0.36804,-1.56673 0.54624,-3.22392 0.54624,-5.07968 0,-11.53357 3.11742,-19.06436 8.48,-20.48522 5.01299,-1.32823 6.12527,-1.73618 6.91672,-2.53683 1.67496,-1.69443 2.27137,-4.6565 1.19511,-5.93556 -1.15745,-1.37555 -1.96438,-6.1368195 -1.0965,-6.4698495 0.27914,-0.10712 0.37966,-0.62972 0.37966,-1.97377 0,-3.82463 2.09773,-5.94288004 5.85035,-5.9075700434 3.82921,0.0360000034 5.52673,1.8537900434 5.52673,5.9182100434 0,1.30581 0.10531,1.83347 0.39867,1.99764 0.68875,0.38544 0.1324,4.4234695 -0.85294,6.1907295 -0.76044,1.36388 -0.7786,1.47288 -0.47863,2.87288 0.75558,3.52643 1.16952,3.8312 7.54749,5.55695 6.6026,1.78653 8.88426,6.60505 9.52134,20.10763 0.13433,2.84709 0.41044,5.28595 0.79379,7.01146 0.61649,2.77496 0.61858,3.51623 0.0305,10.82907 -0.16055,1.9965 -0.12228,2.91726 0.15947,3.83646 1.0594,3.4563 0.95584,4.17077 -0.9752,6.72842 -1.6208,2.14673 -2.59491,2.41454 -1.48499,0.40826 0.96789,-1.74954 1.19361,-3.67825 0.43047,-3.67825 -0.43016,0 -0.68661,0.27015 -0.99025,1.04313 -0.63366,1.61314 -1.58102,1.83435 -1.13065,0.26401 0.14303,-0.49873 0.26006,-1.35234 0.26006,-1.89691 0,-0.54458 0.13295,-1.49786 0.29545,-2.11842 0.31575,-1.20584 0.0152,-2.35125 -2.12725,-8.10614 -0.52035,-1.39776 -0.91775,-3.10658 -1.07679,-4.6302 -0.25113,-2.40584 -0.81171,-4.70317 -1.33173,-5.45756 -0.29606,-0.4295 -0.14921,3.17976 0.2815,6.91876 0.29111,2.52714 0.0667,17.65468 -0.30165,20.33333 -0.38388,2.79165 -1.03973,6.035726 -1.46434,7.243156 -0.19833,0.564 -0.36237,1.63556 -0.36452,2.38125 -0.002,0.74569 -0.18967,2.1297 -0.41671,3.07559 -0.26914,1.12124 -0.40167,2.8248 -0.3808,4.89479 0.0176,1.74625 -0.10826,5.51325 -0.2797,8.37111 -0.42169,7.02925 0.11317,8.41687 4.28672,11.12125 0.71729,0.46478 1.26363,0.96664 1.21409,1.11524 -0.28846,0.86541 -3.90207,0.83445 -5.6427,-0.0483 -0.56427,-0.28618 -1.68079,-0.6088 -2.48115,-0.71694 -2.64482,-0.35733 -2.56494,-0.25811 -2.5996,-3.22911 -0.019,-1.62891 -0.18747,-3.05531 -0.44779,-3.79144 -1.57096,-4.44228 -2.64693,-10.69196 -2.34617,-13.62752 0.18524,-1.80805 -0.14793,-4.45354 -0.96479,-7.66092 -0.25943,-1.01864 -0.60573,-2.56646 -0.76955,-3.439576 -0.16383,-0.87313 -0.40527,-2.06375 -0.53654,-2.64584 -0.2248,-0.99678 -0.59189,-3.44116 -0.9437,-6.28385 -0.22083,-1.78432 -0.54888,-1.55598 -0.76022,0.52917 -0.32559,3.21243 -0.90002,6.14709 -2.70602,13.824476 -0.25152,1.06923 -0.43482,3.37121 -0.48458,6.08541 -0.0875,4.77426 -0.39982,6.69781 -1.89019,11.64167 -0.75221,2.49523 -0.92003,3.486 -0.93269,5.50643 -0.0175,2.7982 0.0376,2.73142 -2.54604,3.08482 -0.76528,0.10467 -1.8506,0.41217 -2.41182,0.68332 -1.04029,0.50261 -3.97123,0.86294 -4.928,0.60585 z"
       style="display:inline;fill:#000000"
       id="obesidade_Grau1"
       inkscape:label="obesidade Grau1" /></g></svg>
